<svg width="128" height="128" viewBox="0 0 128 128" fill="none" xmlns="http://www.w3.org/2000/svg">
<rect width="128" height="128" fill="white"/>
<path fill-rule="evenodd" clip-rule="evenodd" d="M31.4842 65.8524C39.3518 65.8524 45.7297 59.4744 45.7297 51.6069C45.7297 43.7393 39.3518 37.3614 31.4842 37.3614C23.6167 37.3614 17.2387 43.7393 17.2387 51.6069C17.2387 59.4744 23.6167 65.8524 31.4842 65.8524ZM31.4842 67.0911C40.0359 67.0911 46.9684 60.1586 46.9684 51.6069C46.9684 43.0552 40.0359 36.1227 31.4842 36.1227C22.9325 36.1227 16 43.0552 16 51.6069C16 60.1586 22.9325 67.0911 31.4842 67.0911Z" fill="black"/>
<circle cx="31.4851" cy="51.6069" r="4.64526" fill="black"/>
<path fill-rule="evenodd" clip-rule="evenodd" d="M31.4846 29C31.8267 29 32.104 29.2773 32.104 29.6194V37.3615H30.8652V29.6194C30.8652 29.2773 31.1425 29 31.4846 29Z" fill="black"/>
<path fill-rule="evenodd" clip-rule="evenodd" d="M18.3225 32.8021C18.6188 32.6311 18.9976 32.7326 19.1686 33.0288L23.0396 39.7337L21.9669 40.3531L18.0958 33.6482C17.9248 33.352 18.0263 32.9732 18.3225 32.8021Z" fill="black"/>
<path fill-rule="evenodd" clip-rule="evenodd" d="M45.2654 32.8021C44.9691 32.6311 44.5903 32.7326 44.4193 33.0288L40.5482 39.7337L41.621 40.3531L45.4921 33.6482C45.6631 33.352 45.5616 32.9732 45.2654 32.8021Z" fill="black"/>
<path fill-rule="evenodd" clip-rule="evenodd" d="M96.5155 65.8524C104.383 65.8524 110.761 59.4744 110.761 51.6069C110.761 43.7393 104.383 37.3614 96.5155 37.3614C88.6479 37.3614 82.27 43.7393 82.27 51.6069C82.27 59.4744 88.6479 65.8524 96.5155 65.8524ZM96.5155 67.0911C105.067 67.0911 112 60.1586 112 51.6069C112 43.0552 105.067 36.1227 96.5155 36.1227C87.9638 36.1227 81.0312 43.0552 81.0312 51.6069C81.0312 60.1586 87.9638 67.0911 96.5155 67.0911Z" fill="black"/>
<circle cx="96.5164" cy="51.6069" r="4.64526" fill="black"/>
<path fill-rule="evenodd" clip-rule="evenodd" d="M96.5159 29C96.8579 29 97.1352 29.2773 97.1352 29.6194V37.3615H95.8965V29.6194C95.8965 29.2773 96.1738 29 96.5159 29Z" fill="black"/>
<path fill-rule="evenodd" clip-rule="evenodd" d="M83.3538 32.8021C83.65 32.6311 84.0288 32.7326 84.1998 33.0288L88.0709 39.7337L86.9981 40.3531L83.1271 33.6482C82.956 33.352 83.0575 32.9732 83.3538 32.8021Z" fill="black"/>
<path fill-rule="evenodd" clip-rule="evenodd" d="M110.297 32.8021C110 32.6311 109.622 32.7326 109.451 33.0288L105.579 39.7337L106.652 40.3531L110.523 33.6482C110.694 33.352 110.593 32.9732 110.297 32.8021Z" fill="black"/>
<path d="M102.71 85.053C102.71 91.1398 85.3788 99.2984 63.9996 99.2984C42.6204 99.2984 25.2891 91.1398 25.2891 85.053C25.2891 78.9661 42.6204 70.8075 63.9996 70.8075C85.3788 70.8075 102.71 78.9661 102.71 85.053Z" fill="#E3B440"/>
<path fill-rule="evenodd" clip-rule="evenodd" d="M98.8784 88.8923C100.76 87.3357 101.471 86.0022 101.471 85.053C101.471 84.1038 100.76 82.7702 98.8784 81.2136C97.0508 79.7014 94.3417 78.1689 90.9122 76.7979C84.0633 74.0599 74.5429 72.0462 63.9996 72.0462C53.4563 72.0462 43.9358 74.0599 37.0869 76.7979C33.6575 78.1689 30.9483 79.7014 29.1208 81.2136C27.2396 82.7702 26.5278 84.1038 26.5278 85.053C26.5278 86.0022 27.2396 87.3357 29.1208 88.8923C30.9483 90.4045 33.6575 91.9371 37.0869 93.3081C43.9358 96.0461 53.4563 98.0597 63.9996 98.0597C74.5429 98.0597 84.0633 96.0461 90.9122 93.3081C94.3417 91.9371 97.0508 90.4045 98.8784 88.8923ZM63.9996 99.2984C85.3788 99.2984 102.71 91.1398 102.71 85.053C102.71 78.9661 85.3788 70.8075 63.9996 70.8075C42.6204 70.8075 25.2891 78.9661 25.2891 85.053C25.2891 91.1398 42.6204 99.2984 63.9996 99.2984Z" fill="black"/>
<path fill-rule="evenodd" clip-rule="evenodd" d="M25.3218 85.6712C25.3216 85.6712 25.3215 85.6712 25.2891 85.0527C25.2566 84.4342 25.2567 84.4342 25.2569 84.4342L25.5259 84.4202C25.7026 84.4111 25.9636 84.3978 26.3011 84.3809C26.9762 84.347 27.9573 84.2986 29.1818 84.2405C31.6308 84.1243 35.0536 83.9694 38.9493 83.8144C46.7383 83.5047 56.4261 83.1946 63.9996 83.1946C71.5731 83.1946 81.2609 83.5047 89.0499 83.8144C92.9455 83.9694 96.3684 84.1243 98.8173 84.2405C100.042 84.2986 101.023 84.347 101.698 84.3809C102.036 84.3978 102.297 84.4111 102.473 84.4202L102.742 84.4342C102.742 84.4342 102.743 84.4342 102.71 85.0527C102.678 85.6712 102.678 85.6712 102.677 85.6712L102.41 85.6573C102.233 85.6483 101.973 85.635 101.636 85.618C100.962 85.5842 99.9819 85.5358 98.7586 85.4778C96.3121 85.3617 92.8925 85.207 89.0007 85.0522C81.2147 84.7426 71.5472 84.4333 63.9996 84.4333C56.4519 84.4333 46.7845 84.7426 38.9985 85.0522C35.1067 85.207 31.6871 85.3617 29.2405 85.4778C28.0173 85.5358 27.0373 85.5842 26.3633 85.618C26.0262 85.635 25.7657 85.6483 25.5895 85.6573L25.3218 85.6712Z" fill="black"/>
</svg>
