<svg width="128" height="128" viewBox="0 0 128 128" fill="none" xmlns="http://www.w3.org/2000/svg">
<rect width="128" height="128" fill="white"/>
<g clip-path="url(#clip0_434_1153)">
<path d="M95.9692 115.497C91.1705 112.231 81.1141 107.776 75.9678 106.261C72.0128 105.097 66.232 103.919 60.1071 102.677C53.1858 101.27 46.0484 99.8189 40.9528 98.2531C33.9504 96.1034 24.3631 91.1326 22.3822 71.246L22.2979 70.4158L25.2068 70.1256L25.2911 70.9558C27.0797 88.9088 35.2496 93.4409 41.8133 95.4589C46.7774 96.9842 53.8506 98.4218 60.6909 99.8122C66.8766 101.071 72.7214 102.259 76.798 103.46C81.8059 104.935 91.3021 109.089 96.6441 112.45C104.817 101.867 104.028 97.7503 103.552 95.2733C103.073 92.7794 102.006 89.5904 100.974 86.5094C100.022 83.6646 99.1211 80.9818 98.679 78.8558C98.0716 75.9266 97.7915 69.2718 98.3314 65.6779L98.4563 64.8511L101.348 65.2864L101.223 66.1132C100.727 69.4271 100.984 75.5621 101.544 78.2618C101.949 80.2157 102.823 82.8209 103.748 85.578C104.814 88.7569 105.911 92.037 106.427 94.7199C107.2 98.7458 107.224 104.03 97.7105 115.821L97.1874 116.473L95.9793 115.497H95.9692Z" fill="white" stroke="black" stroke-width="2.48" stroke-miterlimit="10"/>
<path d="M105.597 94.875C105.091 92.2428 104.001 88.9897 102.948 85.8412C102.017 83.0571 101.136 80.4283 100.721 78.4271C100.147 75.6633 99.8838 69.3764 100.393 65.9849L99.1549 65.7993C98.6285 69.3123 98.9018 75.8186 99.4958 78.6836C99.9277 80.759 100.819 83.4216 101.764 86.2394C102.806 89.3474 103.883 92.5634 104.372 95.1113C104.885 97.7941 105.735 102.238 96.8332 113.56C91.8455 110.267 81.8566 105.816 76.5585 104.256C72.519 103.065 66.6911 101.881 60.5223 100.629C53.6617 99.2351 46.5682 97.7907 41.567 96.2553C34.7672 94.1664 26.3036 89.5431 24.4611 71.0367L23.2158 71.1616C25.1427 90.4948 34.4263 95.3711 41.2026 97.4533C46.2611 99.009 53.3849 100.457 60.2759 101.857C66.4177 103.106 72.2187 104.287 76.2075 105.461C81.5462 107.034 91.7139 111.579 96.4721 114.829L97.0559 115.302C106.346 103.784 106.339 98.7221 105.604 94.8818L105.597 94.875Z" fill="#454545" stroke="black" stroke-width="2.48" stroke-miterlimit="10"/>
<path d="M84.2626 101.989C83.7564 101.989 83.2266 101.975 82.6867 101.955C75.5493 101.648 68.412 99.8798 60.8765 96.5524C59.2364 95.8303 57.9203 95.1385 56.7291 94.3792C56.3275 94.1227 55.9327 94.008 55.4501 94.008C55.359 94.008 55.2679 94.0114 55.1734 94.0215C54.6031 94.0687 54.0361 94.0923 53.4861 94.0923C51.5659 94.0923 49.7234 93.7988 48.0057 93.2251C44.9348 92.1958 42.8898 90.4343 41.7559 87.8392C41.7255 87.8054 41.5973 87.7481 41.5365 87.7244C39.6029 86.8909 37.9122 86.0203 36.3666 85.0585C31.5814 82.0854 28.0954 78.5556 25.7197 74.2631C25.3957 73.6793 25.0819 73.055 24.714 72.2552C24.4542 72.3362 24.1775 72.3767 23.8839 72.3767C23.732 72.3767 23.5802 72.3665 23.4114 72.3463C21.957 72.1708 21.3765 71.2732 21.1471 70.5476C19.6386 65.7759 19.6217 61.3653 21.0965 57.066C21.5925 55.625 22.3046 54.3191 23.2123 53.1852C23.3439 53.0232 23.4216 52.8747 23.4688 52.706C25.0785 46.7869 28.0313 41.2255 32.4959 35.6979C37.0078 30.1129 42.5455 25.2332 49.4298 20.7753L49.5276 20.7078C49.6424 20.6302 49.7841 20.529 49.9596 20.4514C50.2127 20.34 50.2633 20.2691 50.2667 20.2658C50.2667 20.2658 50.2869 20.1713 50.2127 19.9114C49.8617 18.7269 50.3612 17.5559 51.576 16.6954C52.5412 16.0137 53.6885 15.6661 54.9844 15.6661C55.0721 15.6661 55.1599 15.6661 55.2476 15.6695C55.2476 15.6695 55.2544 15.6695 55.2577 15.6695C55.6357 13.7764 57.0902 12.6121 59.2769 12.5008C59.368 12.4974 59.4558 12.494 59.5469 12.494C60.2319 12.494 60.8697 12.6256 61.4232 12.7876C61.9834 11.1239 63.5154 9.99341 65.2905 9.99341C66.016 9.99341 66.7382 10.1925 67.3828 10.5671C68.0307 10.9451 68.6212 11.458 69.2455 12.1869C70.7776 13.9755 71.6888 15.8315 72.0262 17.8597C72.0262 17.8731 72.0296 17.8866 72.033 17.8968C72.0566 17.9069 72.0971 17.9204 72.1545 17.9406C78.2524 19.8608 83.8003 22.8102 88.6429 26.7113C94.9332 31.7766 99.5361 37.9218 102.32 44.968C102.816 46.2233 103.252 47.5394 103.616 48.8927C103.734 49.3415 104.352 52.2369 104.402 52.5541C104.841 55.2673 104.969 57.9535 104.78 60.5385C104.331 66.6735 102.283 72.3024 98.6891 77.2732C98.6284 77.3576 98.6048 77.4048 98.598 77.4217C98.6014 77.4251 98.6115 77.4588 98.6385 77.5196C99.5193 79.4465 100.171 81.5354 100.633 83.9077C100.65 83.9921 100.663 84.0697 100.677 84.1406L100.957 84.1845C102.56 84.4511 104.116 84.9876 105.58 85.7874C106.711 86.405 107.453 87.279 107.784 88.396C108.108 89.4826 107.925 90.5524 107.244 91.5783C106.636 92.4894 105.776 93.1947 104.537 93.792C102.82 94.6222 100.997 95.0069 99.4248 95.3038C98.2302 95.5299 97.0355 95.702 95.8747 95.8235C95.8409 97.3691 95.1525 98.6616 93.833 99.6706C92.6958 100.541 91.3493 101.101 89.4696 101.493C87.8667 101.824 86.1693 101.986 84.2761 101.986L84.2626 101.989Z" fill="black"/>
<path d="M55.9865 16.5164C56.0607 14.5591 57.2486 13.4421 59.3071 13.3375C60.225 13.2902 61.0788 13.5298 61.9123 13.8437C62.1081 13.7458 62.0743 13.5602 62.1081 13.4117C62.5974 11.2182 65.0102 10.1619 66.954 11.2958C67.5952 11.6704 68.125 12.1766 68.6042 12.7368C69.9169 14.2689 70.8584 15.9933 71.1925 18.0012C71.2668 18.4534 71.4895 18.612 71.8945 18.7402C77.8338 20.6098 83.2602 23.4579 88.1095 27.3658C94.1028 32.1915 98.6923 38.0836 101.534 45.2782C102.094 46.6922 102.553 48.1399 102.931 49.6146C102.978 49.7969 103.002 49.9858 103.133 50.1411C103.444 50.0668 103.629 49.8036 103.896 49.6821C104.068 49.6045 104.25 49.51 104.426 49.6686C104.595 49.8205 104.584 50.0196 104.5 50.1917C104.284 50.6304 104.085 51.0826 103.805 51.4774C103.532 51.8655 103.491 52.2367 103.565 52.6889C103.984 55.2705 104.125 57.8656 103.933 60.4809C103.494 66.481 101.52 71.9175 98.0005 76.7871C97.7238 77.1684 97.6732 77.4418 97.8655 77.867C98.7699 79.8512 99.3841 81.93 99.7992 84.0695C99.9747 84.9739 99.8195 84.8457 100.808 85.011C102.35 85.2641 103.802 85.7771 105.168 86.5229C106.036 86.9953 106.683 87.6669 106.97 88.6354C107.237 89.5296 107.045 90.3531 106.538 91.1157C105.948 92.0032 105.107 92.5871 104.166 93.0426C102.614 93.7952 100.947 94.1698 99.2626 94.4836C98.0613 94.7097 96.8532 94.8885 95.6383 95.01C95.0309 95.0708 95.0275 95.0809 95.0342 95.6681C95.0444 97.082 94.4167 98.172 93.3166 99.0123C92.1253 99.9235 90.735 100.379 89.2906 100.679C87.1241 101.128 84.9272 101.216 82.7236 101.121C75.1948 100.798 68.0744 98.8166 61.2138 95.7896C59.8234 95.1754 58.4601 94.4937 57.1811 93.6771C56.5264 93.2586 55.865 93.127 55.1057 93.1877C52.784 93.3801 50.496 93.1776 48.2721 92.4318C45.6905 91.5679 43.6421 90.0662 42.5218 87.5049C42.3834 87.1843 42.1438 87.0763 41.8671 86.9582C40.1224 86.2056 38.425 85.3552 36.8085 84.3496C32.516 81.6837 28.922 78.3225 26.4518 73.8613C26.057 73.1492 25.7026 72.4169 25.3652 71.6745C25.2167 71.3506 25.0783 71.1818 24.7071 71.3641C24.3325 71.5497 23.9208 71.5665 23.5091 71.5159C22.7465 71.4248 22.1863 71.0637 21.9433 70.2943C20.58 65.9815 20.4011 61.662 21.8859 57.3358C22.3381 56.0163 22.9894 54.7981 23.8635 53.708C24.0558 53.4718 24.1942 53.2221 24.2718 52.9251C25.9692 46.6888 29.1076 41.2152 33.1437 36.2241C37.8816 30.3557 43.5713 25.5637 49.8818 21.477C50.0202 21.3893 50.1484 21.2813 50.2935 21.2172C50.9853 20.9101 51.2586 20.5288 51.0089 19.6784C50.7322 18.7335 51.262 17.9404 52.0517 17.3803C52.9966 16.7155 54.0663 16.4691 55.2103 16.5096C55.4499 16.5164 55.6895 16.6007 55.9899 16.5197L55.9865 16.5164Z" fill="black"/>
<path d="M100.845 53.3065C101.213 53.2289 101.527 53.1648 101.925 53.0804C103.127 61.2503 101.544 68.7319 96.8397 75.5317C96.5158 75.3495 96.4348 75.0424 96.2829 74.7961C93.0737 69.6228 88.5922 66.1537 82.6292 64.7397C78.1848 63.6835 73.7877 64.0445 69.4581 65.4214C64.3151 67.0547 59.9011 69.8961 55.99 73.5677C54.3634 75.0964 52.8684 76.7432 51.522 78.5217C51.2284 78.9064 50.9449 79.0717 50.4455 79.0177C48.8459 78.8456 47.3037 79.092 45.856 79.8175C44.4623 80.5161 43.3385 81.5048 42.5927 82.8952C42.2283 83.5768 42.1034 84.3226 41.992 85.1393C41.1518 84.8626 40.4228 84.461 39.6939 84.0763C34.605 81.3935 30.4508 77.7185 27.6938 72.6026C26.9345 71.192 26.2494 69.7375 25.939 68.1514C25.7399 67.1323 25.804 66.0963 25.8748 65.067C25.8917 64.8038 25.9592 64.5642 26.3 64.4596C27.5453 64.0749 28.3484 63.1503 28.9626 62.0704C30.2753 59.7554 30.7444 57.2548 30.4778 54.6125C30.4171 53.9915 30.299 53.3774 30.0661 52.7902C29.4891 51.3357 28.4699 50.8329 26.9547 51.248C26.8535 51.275 26.7556 51.329 26.6038 51.2547C26.5903 51.032 26.6983 50.8228 26.7759 50.6034C28.3518 46.1624 30.7006 42.1432 33.5656 38.4244C38.0336 32.6234 43.4364 27.8315 49.4972 23.7549C50.2869 23.2251 51.1001 22.7324 51.8864 22.2026C52.2678 21.9461 52.6187 21.8314 53.081 22.0372C53.4185 22.1891 53.8133 22.2195 54.1879 22.2802C54.3533 22.3072 54.5119 22.2566 54.6131 22.1014C54.7346 21.909 54.6739 21.7234 54.5389 21.5817C54.198 21.2307 53.8403 20.9 53.486 20.5625C53.3105 20.3938 53.1013 20.2521 52.9494 20.0665C52.5006 19.5164 52.5985 19.0102 53.216 18.6491C54.0293 18.1767 54.9101 18.1024 55.8179 18.2847C56.702 18.4635 57.5153 18.8381 58.305 19.2633C58.6019 19.4253 58.9394 19.7391 59.2566 19.405C59.5806 19.0642 59.206 18.7537 59.0474 18.4635C58.774 17.9641 58.4366 17.5051 58.0957 17.0428C57.4141 16.1182 57.684 15.3521 58.8179 15.1395C60.4006 14.8459 61.7741 15.3251 62.8337 16.5501C63.3129 17.1036 63.7887 17.6604 64.2983 18.1902C64.4096 18.3083 64.5278 18.4298 64.6661 18.5074C65.0002 18.6964 65.2837 18.5175 65.2465 18.1429C65.2263 17.9573 65.1622 17.7717 65.0879 17.5996C64.7471 16.8032 64.4063 16.0068 64.0452 15.2171C63.8967 14.8898 63.8258 14.5523 63.7853 14.198C63.7178 13.6007 63.9001 13.135 64.4231 12.811C64.98 12.4668 65.5401 12.4027 66.1037 12.7705C66.3534 12.9325 66.593 13.1148 66.8056 13.3206C67.9867 14.4511 68.7899 15.8178 69.3163 17.36C69.5019 17.9101 69.5391 18.4737 69.5121 19.0473C69.4851 19.6548 69.6066 20.2352 69.8158 20.7988C69.9035 21.035 70.0014 21.2678 70.2984 21.278C70.5548 21.2881 70.6594 21.0755 70.7742 20.8865C70.8822 20.7043 70.8889 20.4343 71.0948 20.3398C71.3344 20.2318 71.5672 20.4107 71.7933 20.4849C81.7046 23.7853 89.8408 29.512 95.8341 38.1376C98.4292 41.8733 100.289 45.9566 101.375 50.3807C101.632 51.4302 101.632 51.4032 100.592 51.6495C100.262 51.7272 100.164 51.6091 100.039 51.3728C99.8769 51.059 99.7048 50.7519 99.5158 50.4549C98.8645 49.4358 98.0647 48.5516 97.0355 47.9071C95.0006 46.6382 92.9049 46.5437 90.7756 47.6709C89.419 48.3897 88.3593 49.4493 87.6102 50.7654C85.0859 55.1895 84.9307 59.7284 87.1411 64.3213C87.7991 65.688 88.7778 66.832 90.0871 67.6216C92.446 69.0457 94.7914 68.9175 97.0388 67.3618C98.7262 66.1942 99.7858 64.5339 100.505 62.6441C101.514 59.9882 101.834 56.9072 100.845 53.2997V53.3065Z" fill="white"/>
<path d="M51.8568 85.443C52.3664 85.0651 52.7983 85.1967 53.2235 85.2507C53.5205 85.2878 53.8141 85.3654 54.1077 85.3586C54.4856 85.3553 54.6746 85.0516 54.4688 84.7512C54.0132 84.0898 53.4327 83.5397 52.5992 83.4182C51.0536 83.1888 49.2178 84.2619 48.6104 85.6826C48.2763 86.4588 48.4349 87.1776 48.8298 87.8626C49.0829 88.3047 49.4709 88.2811 49.6768 87.8154C49.8489 87.4239 49.9636 87.0088 50.1222 86.5465C51.904 87.3935 53.6757 88.1258 55.4845 88.7603C61.2821 90.7952 67.2248 92.2935 73.2418 93.5084C76.009 94.0685 78.7762 94.622 81.5737 94.9999C84.9753 95.4589 88.3871 95.6006 91.8123 95.3711C92.0283 95.3577 92.2443 95.3408 92.4636 95.3273C93.3478 95.2699 93.5131 95.469 93.2634 96.3329C93.0744 96.9943 92.6189 97.4533 92.0654 97.8245C91.0767 98.4859 89.9563 98.8133 88.8089 99.0427C86.5007 99.5051 84.162 99.5152 81.8302 99.3701C76.3161 99.0259 70.9943 97.7671 65.8176 95.8807C62.8007 94.7806 59.8918 93.451 57.1752 91.7266C56.6555 91.3958 56.1257 91.3284 55.5453 91.4161C52.9637 91.8143 50.453 91.514 48.0334 90.5556C46.562 89.9718 45.3303 89.0505 44.4833 87.6838C43.1941 85.6084 43.5451 83.5701 45.4619 82.0549C46.9231 80.9008 48.6003 80.4992 50.4327 80.6949C50.5947 80.7118 50.7533 80.7422 50.9153 80.7692C51.5666 80.867 52.0458 80.6511 52.4507 80.0976C54.2258 77.6814 56.2573 75.4946 58.5385 73.5475C62.4362 70.2235 66.7861 67.733 71.8042 66.5316C76.4443 65.4214 81.0237 65.553 85.4613 67.4394C90.2499 69.4777 93.6177 73.0008 95.9024 77.6206C96.9822 79.8006 97.6875 82.1055 98.1566 84.4846C98.214 84.7782 98.2275 85.0583 98.1397 85.3654C97.9744 85.9627 98.2376 86.3542 98.8653 86.4723C99.3445 86.5634 99.8338 86.587 100.32 86.6545C101.676 86.8435 102.962 87.2687 104.167 87.9132C105.706 88.7366 105.78 89.8705 104.379 90.9335C103.677 91.4667 102.874 91.7907 102.044 92.0573C99.9654 92.7254 97.8158 93.0325 95.6628 93.3093C92.9934 93.6501 90.3106 93.7817 87.6177 93.7041C84.432 93.613 81.2869 93.1878 78.1519 92.6681C71.2879 91.5308 64.5285 89.9448 57.9075 87.7918C56.0751 87.1944 54.2629 86.5398 52.498 85.7602C52.3056 85.6759 52.12 85.5713 51.8568 85.4396V85.443Z" fill="#F4BE82"/>
<path d="M90.7186 65.4923C91.9031 65.219 92.7333 64.4698 93.3744 63.481C94.208 62.1953 94.5825 60.7577 94.7108 59.2526C94.8559 57.5518 94.6365 55.8949 93.9751 54.3054C93.7558 53.7756 93.4858 53.2762 93.1315 52.824C92.1967 51.6328 91.0291 50.9646 89.4531 51.2177C90.7389 48.9466 93.6647 47.8093 95.9965 49.2705C97.0393 49.9252 97.7986 50.8262 98.379 51.8926C99.4656 53.8836 99.8098 56.0299 99.6951 58.2673C99.5972 60.1672 99.1214 61.9658 98.1596 63.616C97.4915 64.76 96.6309 65.7285 95.4431 66.3596C93.6916 67.291 91.7445 67.0109 90.3643 65.6374C90.4554 65.5227 90.614 65.5767 90.7152 65.4923H90.7186Z" fill="#EAF7FF"/>
<path d="M22.4365 64.5338C22.4905 61.0377 22.9123 58.5439 24.1677 56.2457C24.8528 54.987 25.7369 53.9038 26.9518 53.1175C27.134 52.9994 27.3196 52.8813 27.5187 52.8003C27.9203 52.6383 28.1936 52.7328 28.413 53.1107C28.6053 53.4414 28.7032 53.8127 28.7673 54.1872C29.1588 56.5123 28.7808 58.7261 27.7752 60.8386C27.4917 61.4325 27.107 61.9556 26.6211 62.4011C26.0102 62.9545 25.6762 63.0051 24.9371 62.6609C24.4377 62.4281 24.1238 62.4719 23.8539 62.8161C23.5771 63.1637 23.5839 63.6227 23.9888 63.9703C24.2993 64.2335 24.2622 64.4731 24.2183 64.8072C24.0327 66.2684 24.107 67.7262 24.3567 69.1773C24.4512 69.7274 24.1745 69.9737 23.6311 69.8623C23.378 69.8084 23.2802 69.6531 23.2363 69.4169C22.8718 67.5001 22.4028 65.5968 22.4399 64.5372L22.4365 64.5338Z" fill="#454545"/>
<path d="M92.6628 55.8577C92.872 56.0062 92.8383 56.2491 92.8687 56.4516C93.1758 58.446 93.1083 60.3965 92.16 62.2425C91.917 62.7115 91.5863 63.0996 91.1915 63.4371C90.5132 64.0141 89.7235 64.004 89.0418 63.4371C88.485 62.9714 88.0632 62.3977 87.8641 61.7093C87.3579 59.9747 87.0879 58.2098 87.4457 56.4111C87.6616 55.338 88.0328 54.3222 88.8495 53.5258C89.7404 52.6585 90.6819 52.6585 91.5492 53.5596C91.8259 53.8498 92.1229 54.14 92.1465 54.5821C91.4243 54.491 90.9013 54.9162 90.3546 55.2739C89.7336 55.203 89.4671 55.6417 89.2916 56.1007C88.7415 57.5484 88.7111 59.0096 89.3017 60.4607C89.4232 60.761 89.575 61.0883 89.9597 61.1052C90.3411 61.1221 90.5233 60.8184 90.6785 60.5315C90.9654 59.9983 91.1375 59.4348 91.1476 58.824C91.1544 58.4764 91.097 58.1153 91.2995 57.7947C92.2815 57.5214 92.241 56.5259 92.6628 55.8577Z" fill="#565656"/>
<path d="M92.6624 55.8577C92.6185 56.1513 92.5814 56.4449 92.5308 56.7351C92.4127 57.3966 92.055 57.8116 91.3429 57.842C90.911 58.0074 90.6612 57.7171 90.4858 57.4269C90.0673 56.725 89.9458 55.9826 90.4014 55.2334C90.938 54.3358 91.1472 54.2548 92.1427 54.5821C92.2642 54.788 92.3857 54.9938 92.5072 55.1997C92.6253 55.3515 92.5173 55.5608 92.6421 55.7092C92.6354 55.7599 92.6421 55.8071 92.6624 55.8544V55.8577Z" fill="#FDFEFE"/>
<path d="M92.645 55.7126C92.5167 55.5641 92.4796 55.392 92.51 55.203C92.6889 55.338 92.7159 55.5135 92.645 55.7126Z" fill="#565656"/>
<path d="M90.7182 65.4922C90.6237 65.5969 90.5124 65.6576 90.3673 65.6373C90.3538 65.5136 90.4707 65.4652 90.7182 65.4922Z" fill="#809A9E"/>
<path d="M56.5238 68.9716C52.5789 68.8231 49.3561 66.832 47.3583 62.9884C43.5315 55.6216 47.716 45.7272 55.6464 43.2738C60.6003 41.7417 65.6488 43.7159 68.254 48.2041C68.7163 48.9972 68.7096 48.9769 69.5735 48.7171C70.6938 48.3796 71.4531 47.563 72.263 46.8037C72.4216 46.6552 72.5634 46.4932 72.7321 46.3582C72.8435 46.2705 72.9852 46.2637 73.1101 46.3515C73.2315 46.4392 73.2619 46.5674 73.245 46.7092C73.2383 46.7632 73.2315 46.8205 73.2079 46.8678C72.6275 47.9747 72.101 49.1187 71.0313 49.8644C70.7681 50.0501 70.4576 50.1648 70.1708 50.32C69.9177 50.4618 69.4958 50.3538 69.398 50.6507C69.3237 50.8701 69.4891 51.1671 69.5431 51.4303C70.7849 57.4843 68.9627 62.472 64.2247 66.3731C62.129 68.0975 59.6487 68.9277 56.5204 68.9682L56.5238 68.9716Z" fill="black"/>
<path d="M75.4282 71.9614C75.8163 71.9614 76.1909 72.0526 76.5351 72.2112C76.9569 72.4035 76.9839 72.7612 76.5992 73.0177C76.3528 73.1797 76.0761 73.3045 75.7994 73.4125C75.3371 73.5914 74.9355 73.831 74.6014 74.2157C74.2066 74.6713 73.8185 74.7286 73.4675 74.4789C73.0997 74.2191 73.012 73.7297 73.3157 73.2404C73.7949 72.4609 74.4597 71.9479 75.4316 71.9614H75.4282Z" fill="#040303"/>
<path d="M87.2732 72.9266C87.9684 72.9401 88.6366 73.7432 88.5421 74.4451C88.4577 75.0829 88.0798 75.3124 87.4656 75.0863C87.3137 75.0289 87.1652 74.9851 87.0032 74.9581C86.3924 74.8602 86.1157 74.5295 86.1562 73.9929C86.2035 73.3788 86.6894 72.9131 87.2732 72.9266Z" fill="#060404"/>
<path d="M90.4052 55.2369C90.3242 55.6621 90.2803 56.0873 90.3377 56.5226C90.422 57.157 90.6751 57.6565 91.3467 57.8421C91.4445 58.6891 91.3669 59.5125 91.0396 60.3123C90.9147 60.616 90.7561 60.8995 90.5401 61.1424C90.1824 61.5406 89.7775 61.5305 89.44 61.1222C89.2679 60.913 89.1397 60.6801 89.0418 60.4203C88.512 59.0198 88.5559 57.616 89.0047 56.2121C89.1464 55.77 89.386 55.3752 89.7606 55.0782C90.0441 54.8521 90.2533 54.9196 90.4052 55.2335V55.2369Z" fill="#010101"/>
<path d="M47.625 56.9342C47.9186 51.8959 50.0041 47.9071 54.6037 45.528C58.417 43.5538 62.6859 44.3098 65.5004 47.3199C67.0966 49.0275 67.9773 51.0927 68.1697 53.3942C68.5612 58.0445 66.9616 61.9253 63.3507 64.9051C61.6364 66.319 59.6386 67.1458 57.3945 67.2471C53.4631 67.4259 50.075 65.2088 48.5159 61.4765C47.9355 60.0861 47.6486 58.5844 47.6284 56.9342H47.625Z" fill="#EAF7FF"/>
<path d="M50.7364 57.7306C50.8208 54.8082 51.7117 52.2064 53.7905 50.077C54.3237 49.5303 54.9412 49.0882 55.633 48.7575C57.8265 47.7114 60.1111 48.3222 61.5082 50.3233C62.2911 51.4437 62.6826 52.7092 62.7805 54.0489C63.0032 57.0996 62.1764 59.8398 60.2124 62.2088C59.6556 62.8803 58.9874 63.4337 58.2146 63.8522C55.8625 65.1345 53.3484 64.4934 51.9142 62.229C51.0469 60.8589 50.7297 59.3369 50.7364 57.7273V57.7306Z" fill="black"/>
<path d="M61.0523 53.897C61.302 54.2413 61.1839 54.6327 61.1704 55.0005C61.0894 57.1063 60.536 59.067 59.2368 60.761C58.5315 61.6823 57.6811 62.4146 56.5202 62.7284C55.5753 62.9849 54.7519 62.7925 54.0297 62.1514C52.9195 61.166 52.5348 59.8398 52.4302 58.4393C52.2884 56.5292 52.7102 54.7171 53.645 53.0433C54.3098 51.852 55.2547 50.9308 56.4831 50.3301C57.5056 49.8306 58.5517 49.7631 59.4595 50.5427C60.2289 51.2075 60.7756 52.0444 60.8498 53.1108C60.7047 53.1411 60.59 53.077 60.4719 53.0061C59.5979 52.4797 59.5236 52.4932 58.7744 53.2559C58.6631 53.3706 58.5618 53.5157 58.3695 53.3909C57.8532 52.5033 57.2356 52.392 56.5033 53.1344C55.5179 54.1366 55.0387 55.4055 54.9105 56.7823C54.8396 57.5585 54.8126 58.3515 55.0624 59.1176C55.4369 60.2683 56.2604 60.4877 57.1513 59.6845C57.7789 59.121 58.0961 58.3785 58.4066 57.6226C58.5821 57.1974 58.626 56.7284 58.8689 56.3268C60.1513 56.2154 60.7756 55.4831 60.8633 54.2345C60.8735 54.0995 60.9308 53.9747 61.0489 53.8903L61.0523 53.897Z" fill="#565656"/>
<path d="M61.0525 53.8971C61.0154 54.5417 61.0086 55.1862 60.5834 55.743C60.0705 56.4146 59.7634 56.5462 58.9265 56.3471C57.985 55.8004 57.7758 54.491 58.4608 53.4449C58.5081 53.3842 58.5654 53.3268 58.6025 53.2627C59.1459 52.2672 59.8984 52.1592 60.6813 52.9623C60.7353 53.0163 60.796 53.067 60.8534 53.1176C60.9209 53.3774 60.9884 53.6406 61.0559 53.9005L61.0525 53.8971Z" fill="#FDFDFD"/>
<path d="M58.4568 53.4415C58.3589 53.9207 58.2712 54.3999 58.3049 54.8925C58.342 55.4494 58.477 55.9623 58.9258 56.3436C58.7571 57.7002 58.2644 58.9117 57.279 59.8802C56.3105 60.8319 55.261 60.5619 54.8797 59.2458C54.468 57.8217 54.5827 56.401 55.1092 55.0208C55.4095 54.2311 55.7908 53.4887 56.432 52.9049C56.6581 52.699 56.8977 52.5303 57.1947 52.4561C57.9742 52.2603 58.396 52.5944 58.4602 53.4415H58.4568Z" fill="black"/>
</g>
<defs>
<clipPath id="clip0_434_1153">
<rect width="88" height="107.056" fill="white" transform="translate(20 10)"/>
</clipPath>
</defs>
</svg>
